{
    "accessors" : [
        {
            "bufferView" : 0,
            "componentType" : 5123,
            "count" : 21378,
            "max" : [
                20853
            ],
            "min" : [
                0
            ],
            "type" : "SCALAR"
        },
        {
            "bufferView" : 1,
            "componentType" : 5126,
            "count" : 20854,
            "max" : [
                91.29167938232422,
                26.447561264038086,
                77.55195617675781
            ],
            "min" : [
                -52.73349380493164,
                1.100841999053955,
                -88.5252914428711
            ],
            "type" : "VEC3"
        },
        {
            "bufferView" : 2,
            "componentType" : 5126,
            "count" : 20854,
            "max" : [
                0.9999410510063171,
                0.9999436140060425,
                0.9999721646308899
            ],
            "min" : [
                -0.9998587965965271,
                -0.999511182308197,
                -0.9999101758003235
            ],
            "type" : "VEC3"
        },
        {
            "bufferView" : 3,
            "componentType" : 5126,
            "count" : 20854,
            "max" : [
                1.0,
                0.7058318853378296,
                1.0,
                1.0
            ],
            "min" : [
                -1.0,
                -0.007209253031760454,
                -0.9999999403953552,
                -1.0
            ],
            "type" : "VEC4"
        },
        {
            "bufferView" : 4,
            "componentType" : 5126,
            "count" : 20854,
            "max" : [
                0.4091103971004486,
                0.7532821893692017
            ],
            "min" : [
                0.011715468019247055,
                0.3400545120239258
            ],
            "type" : "VEC2"
        },
        {
            "bufferView" : 5,
            "componentType" : 5123,
            "count" : 13260,
            "max" : [
                13159
            ],
            "min" : [
                0
            ],
            "type" : "SCALAR"
        },
        {
            "bufferView" : 6,
            "componentType" : 5126,
            "count" : 13160,
            "max" : [
                74.4139404296875,
                10.015403747558594,
                80.30146789550781
            ],
            "min" : [
                -84.15794372558594,
                0.6659183502197266,
                -19.559528350830078
            ],
            "type" : "VEC3"
        },
        {
            "bufferView" : 7,
            "componentType" : 5126,
            "count" : 13160,
            "max" : [
                0.9984428882598877,
                0.9998430013656616,
                0.9997678399085999
            ],
            "min" : [
                -0.999710738658905,
                -0.9966013431549072,
                -0.9997671246528625
            ],
            "type" : "VEC3"
        },
        {
            "bufferView" : 8,
            "componentType" : 5126,
            "count" : 13160,
            "max" : [
                1.0,
                0.8065759539604187,
                0.9999592900276184,
                1.0
            ],
            "min" : [
                -1.0,
                -0.9978241920471191,
                -0.9999794960021973,
                -1.0
            ],
            "type" : "VEC4"
        },
        {
            "bufferView" : 9,
            "componentType" : 5126,
            "count" : 13160,
            "max" : [
                0.36793777346611023,
                0.820298969745636
            ],
            "min" : [
                0.18318718671798706,
                0.502396821975708
            ],
            "type" : "VEC2"
        }
    ],
    "asset" : {
        "generator" : "Khronos Blender glTF 2.0 exporter",
        "version" : "2.0"
    },
    "bufferViews" : [
        {
            "buffer" : 0,
            "byteLength" : 42756,
            "byteOffset" : 0,
            "target" : 34963
        },
        {
            "buffer" : 0,
            "byteLength" : 250248,
            "byteOffset" : 42756,
            "target" : 34962
        },
        {
            "buffer" : 0,
            "byteLength" : 250248,
            "byteOffset" : 293004,
            "target" : 34962
        },
        {
            "buffer" : 0,
            "byteLength" : 333664,
            "byteOffset" : 543252,
            "target" : 34962
        },
        {
            "buffer" : 0,
            "byteLength" : 166832,
            "byteOffset" : 876916,
            "target" : 34962
        },
        {
            "buffer" : 0,
            "byteLength" : 26520,
            "byteOffset" : 1043748,
            "target" : 34963
        },
        {
            "buffer" : 0,
            "byteLength" : 157920,
            "byteOffset" : 1070268,
            "target" : 34962
        },
        {
            "buffer" : 0,
            "byteLength" : 157920,
            "byteOffset" : 1228188,
            "target" : 34962
        },
        {
            "buffer" : 0,
            "byteLength" : 210560,
            "byteOffset" : 1386108,
            "target" : 34962
        },
        {
            "buffer" : 0,
            "byteLength" : 105280,
            "byteOffset" : 1596668,
            "target" : 34962
        }
    ],
    "buffers" : [
        {
            "byteLength" : 1701948,
            "uri" : "SmallTrees.bin"
        }
    ],
    "images" : [
        {
            "name" : "ColorAtlas",
            "uri" : "ColorAtlas.png"
        },
        {
            "name" : "Emmisive",
            "uri" : "Emmisive.jpg"
        },
        {
            "name" : "GlossinessMask",
            "uri" : "GlossinessMask.jpg"
        }
    ],
    "materials" : [
        {
            "doubleSided" : true,
            "emissiveFactor" : [
                0.10724328458309174,
                0.10724328458309174,
                0.10724328458309174
            ],
            "emissiveTexture" : {
                "index" : 1
            },
            "name" : "ColorAtlas",
            "pbrMetallicRoughness" : {
                "baseColorTexture" : {
                    "index" : 0
                },
                "metallicFactor" : 0.0
            }
        },
        {
            "emissiveFactor" : [
                0.06219721585512161,
                0.06219721585512161,
                0.06219721585512161
            ],
            "emissiveTexture" : {
                "index" : 3
            },
            "name" : "ColorAtlasSingle",
            "pbrMetallicRoughness" : {
                "baseColorTexture" : {
                    "index" : 0
                },
                "metallicFactor" : 0.0
            }
        }
    ],
    "meshes" : [
        {
            "name" : "TreesSmallB",
            "primitives" : [
                {
                    "attributes" : {
                        "NORMAL" : 2,
                        "POSITION" : 1,
                        "TANGENT" : 3,
                        "TEXCOORD_0" : 4
                    },
                    "indices" : 0,
                    "material" : 0
                }
            ]
        },
        {
            "name" : "TreesSmallA",
            "primitives" : [
                {
                    "attributes" : {
                        "NORMAL" : 7,
                        "POSITION" : 6,
                        "TANGENT" : 8,
                        "TEXCOORD_0" : 9
                    },
                    "indices" : 5,
                    "material" : 1
                }
            ]
        }
    ],
    "nodes" : [
        {
            "mesh" : 1,
            "name" : "TreesSmallA"
        },
        {
            "mesh" : 0,
            "name" : "TreesSmallB"
        }
    ],
    "samplers" : [
        {}
    ],
    "scene" : 0,
    "scenes" : [
        {
            "name" : "Scene",
            "nodes" : [
                0,
                1
            ]
        }
    ],
    "textures" : [
        {
            "sampler" : 0,
            "source" : 0
        },
        {
            "sampler" : 0,
            "source" : 1
        },
        {
            "sampler" : 0,
            "source" : 0
        },
        {
            "sampler" : 0,
            "source" : 2
        }
    ]
}
